<?xml version="1.0" standalone="no"?>
<!DOCTYPE svg PUBLIC "-//W3C//DTD SVG 20010904//EN"
 "http://www.w3.org/TR/2001/REC-SVG-20010904/DTD/svg10.dtd">
<svg version="1.0" xmlns="http://www.w3.org/2000/svg"
 width="978.000000pt" height="909.000000pt" viewBox="0 0 978.000000 909.000000"
 preserveAspectRatio="xMidYMid meet">
<metadata>
Created by potrace 1.16, written by Peter Selinger 2001-2019
</metadata>
<g transform="translate(0.000000,909.000000) scale(0.100000,-0.100000)"
fill="#000000" stroke="none">
<path d="M4710 8785 c-25 -34 -258 -308 -668 -785 l-211 -245 0 -2006 -1
-2006 -110 -103 c-71 -66 -112 -97 -115 -88 -3 7 -4 559 -2 1225 1 667 -1
1212 -5 1210 -4 -1 -98 -110 -209 -242 -111 -132 -216 -256 -233 -276 -17 -20
-71 -85 -121 -144 -49 -59 -105 -123 -122 -143 l-33 -37 0 -1137 0 -1137 -57
-53 c-32 -29 -90 -83 -129 -121 -39 -37 -75 -67 -81 -67 -10 0 -127 173 -140
206 -3 11 -9 21 -13 24 -4 3 -13 19 -22 35 -8 17 -36 70 -61 118 -26 48 -47
94 -47 102 0 8 -4 15 -9 15 -5 0 -13 15 -16 32 -4 18 -10 35 -14 38 -3 3 -15
32 -25 65 -11 33 -23 65 -27 70 -4 6 -10 26 -14 45 -4 19 -11 40 -15 45 -5 6
-11 31 -15 58 -4 26 -11 47 -15 47 -4 0 -11 27 -15 60 -4 33 -11 63 -16 66 -5
3 -9 23 -9 44 0 21 -4 42 -10 45 -5 3 -10 20 -10 38 0 18 -4 66 -10 107 -32
239 -27 589 14 800 2 14 8 45 12 70 4 25 10 50 14 55 4 6 11 34 15 62 4 29 11
55 16 59 5 3 9 15 9 28 0 27 39 157 51 171 5 5 9 18 9 28 0 26 82 220 146 343
143 277 309 500 535 719 187 180 325 284 557 417 l113 65 2 231 c1 128 -2 232
-7 232 -15 0 -280 -132 -366 -182 -144 -85 -300 -191 -410 -279 -131 -105
-343 -312 -435 -425 -38 -48 -77 -94 -85 -103 -8 -9 -37 -50 -64 -91 -28 -41
-53 -77 -56 -80 -38 -30 -270 -483 -270 -526 0 -8 -4 -14 -10 -14 -5 0 -10 -7
-10 -16 0 -9 -6 -30 -14 -47 -17 -41 -39 -106 -61 -182 -10 -33 -24 -79 -31
-103 -8 -23 -14 -53 -14 -66 0 -12 -3 -26 -7 -30 -9 -8 -26 -99 -58 -301 -18
-109 -28 -278 -28 -455 1 -219 16 -462 32 -495 6 -11 12 -40 14 -65 3 -25 7
-56 10 -70 3 -14 9 -43 12 -65 4 -22 9 -47 12 -55 4 -8 8 -26 10 -40 2 -14 10
-45 17 -70 8 -25 17 -61 21 -80 4 -19 11 -39 15 -45 4 -5 11 -27 14 -49 4 -21
11 -46 16 -55 4 -9 20 -50 35 -91 77 -209 171 -398 314 -630 25 -40 49 -77 55
-84 38 -41 88 -126 73 -126 -3 0 -129 -28 -202 -45 -57 -13 -265 -67 -330 -85
-16 -5 -55 -16 -85 -23 -30 -8 -68 -20 -83 -26 -16 -6 -39 -11 -53 -11 -13 0
-24 -4 -24 -10 0 -5 -7 -10 -15 -10 -8 0 -56 -13 -107 -30 -51 -16 -115 -37
-143 -46 -27 -9 -59 -19 -70 -24 -11 -4 -42 -16 -70 -25 -56 -20 -269 -102
-300 -115 -11 -5 -59 -25 -106 -44 -108 -44 -202 -87 -399 -184 -178 -88 -165
-80 -157 -88 4 -4 12 -3 19 3 7 5 40 18 73 28 33 11 65 22 70 26 6 4 26 10 45
14 19 4 40 10 45 14 6 4 35 14 65 24 30 9 98 30 150 46 52 16 120 36 150 44
30 8 82 22 115 31 33 10 78 22 100 28 22 6 51 14 65 19 14 5 45 13 70 19 25 6
72 18 105 26 33 9 85 21 115 28 30 7 62 15 70 18 8 4 40 11 70 18 92 19 154
31 170 34 8 1 22 5 30 8 19 8 108 26 190 39 36 6 74 12 85 15 77 16 130 27
200 39 44 8 103 19 130 24 28 6 95 17 150 26 55 8 109 17 120 20 11 3 56 10
100 15 44 6 109 14 145 19 36 5 92 12 125 16 32 3 62 8 65 10 3 2 57 6 120 10
63 4 120 10 125 13 6 4 51 10 100 14 50 3 137 11 195 17 58 6 143 11 190 12
46 1 94 5 106 10 63 24 1514 31 1844 10 91 -6 242 -16 335 -21 94 -5 193 -14
220 -19 28 -6 88 -13 135 -16 47 -2 101 -7 120 -9 19 -3 78 -9 130 -15 289
-32 745 -103 1063 -166 167 -33 225 -45 292 -60 39 -9 88 -19 110 -22 22 -3
45 -9 50 -13 6 -5 35 -12 65 -16 30 -4 60 -10 65 -14 6 -4 34 -11 62 -15 29
-4 55 -11 59 -16 3 -5 18 -9 34 -9 16 0 32 -5 35 -10 4 -6 15 -8 25 -5 10 3
21 1 25 -5 3 -5 19 -10 35 -10 16 0 32 -5 35 -10 4 -6 12 -10 18 -8 14 2 70
-9 107 -22 14 -5 50 -15 80 -24 30 -8 82 -22 115 -31 33 -10 103 -30 155 -46
52 -16 120 -37 150 -46 30 -10 60 -20 65 -24 6 -4 26 -10 45 -14 19 -4 40 -10
45 -13 19 -12 164 -59 160 -52 -4 7 -223 117 -375 188 -137 64 -469 198 -585
236 -27 9 -59 20 -70 25 -27 12 -90 33 -215 71 -58 17 -114 35 -125 40 -21 8
-91 28 -190 56 -33 9 -80 22 -105 29 -52 16 -348 88 -433 106 -32 7 -60 16
-62 20 -3 4 28 51 68 106 128 171 235 359 352 618 54 118 139 378 165 505 6
30 16 70 22 88 5 18 12 58 15 90 2 31 9 66 13 77 40 88 43 766 5 945 -3 14 -9
50 -14 80 -5 30 -16 89 -25 130 -10 41 -22 98 -27 125 -5 28 -14 59 -18 70 -5
11 -17 47 -26 80 -27 90 -46 146 -61 182 -8 17 -14 36 -14 42 0 6 -4 19 -10
29 -15 27 -60 132 -60 140 0 8 -47 101 -107 212 -46 87 -110 192 -150 248 -15
22 -35 50 -43 63 -8 12 -60 79 -114 147 -152 191 -351 386 -536 526 -41 31
-79 59 -85 64 -95 73 -301 194 -465 273 -58 27 -117 57 -132 65 l-28 15 0
-213 c0 -117 -3 -223 -6 -234 -5 -18 2 -25 43 -45 77 -36 270 -157 373 -232
148 -109 308 -256 430 -397 36 -41 67 -77 70 -80 37 -34 240 -336 240 -357 0
-7 4 -13 9 -13 5 0 14 -12 20 -27 5 -16 19 -44 30 -63 25 -44 93 -191 116
-250 10 -25 24 -59 31 -77 8 -17 14 -38 14 -46 0 -8 7 -28 15 -43 8 -16 15
-39 15 -51 0 -12 4 -24 9 -28 5 -3 13 -30 16 -60 4 -30 11 -55 15 -55 4 0 11
-28 15 -62 4 -35 11 -67 15 -73 4 -5 10 -35 14 -65 3 -30 8 -68 11 -85 10 -66
28 -315 28 -405 1 -99 -9 -260 -20 -320 -4 -19 -8 -44 -9 -55 -2 -19 -11 -72
-34 -200 -6 -33 -15 -67 -19 -75 -5 -9 -12 -36 -16 -60 -4 -24 -11 -51 -15
-60 -5 -8 -23 -60 -40 -115 -18 -55 -36 -104 -39 -110 -4 -5 -18 -38 -31 -73
-12 -34 -27 -65 -31 -68 -5 -3 -9 -14 -9 -25 0 -10 -4 -19 -9 -19 -5 0 -12
-12 -15 -26 -4 -14 -18 -43 -31 -65 -14 -21 -25 -43 -25 -48 0 -5 -6 -16 -12
-23 -7 -7 -22 -29 -32 -48 -51 -94 -128 -200 -139 -193 -7 4 -32 25 -56 47
-24 23 -58 55 -75 71 -18 17 -67 61 -109 99 l-77 68 0 1113 c0 977 -2 1114
-15 1125 -8 7 -15 18 -15 24 0 6 -14 27 -30 46 -43 51 -42 49 -93 120 -25 36
-50 70 -56 76 -5 6 -36 49 -70 95 -33 46 -68 93 -77 104 -8 11 -70 95 -137
187 -67 91 -123 165 -124 164 -2 -1 -3 -554 -3 -1229 0 -728 -4 -1228 -9
-1232 -9 -5 -63 41 -213 184 l-78 74 0 1993 0 1994 -207 247 c-113 137 -220
264 -237 283 -17 20 -47 55 -66 80 -19 24 -100 120 -180 214 -80 94 -157 187
-172 206 l-28 35 0 -2112 c0 -1162 -4 -2113 -8 -2113 -4 0 -26 18 -47 40 -21
22 -45 40 -51 40 -7 0 -32 -18 -56 -40 -23 -22 -46 -40 -50 -40 -5 0 -8 950
-8 2110 0 1161 -3 2110 -7 2110 -5 -1 -19 -16 -33 -35z m232 -4694 c61 -65
342 -322 493 -450 22 -19 72 -64 111 -100 38 -36 117 -109 174 -161 58 -52
136 -124 175 -160 39 -36 122 -112 185 -170 63 -58 142 -130 175 -161 33 -30
85 -77 115 -105 30 -27 93 -85 140 -129 47 -44 101 -95 121 -113 30 -28 49
-35 125 -48 145 -24 204 -36 204 -41 0 -3 -19 -28 -42 -55 -32 -39 -45 -48
-62 -43 -12 3 -50 10 -86 15 -36 5 -114 16 -175 25 -309 46 -669 81 -1015 100
-63 3 -130 8 -149 11 -48 8 -1088 7 -1153 -1 -29 -3 -159 -13 -288 -21 -311
-20 -588 -48 -865 -89 -60 -9 -139 -20 -175 -25 -36 -5 -85 -14 -110 -19 -25
-6 -58 -10 -74 -11 l-30 0 29 30 29 30 -24 25 c-13 14 -22 26 -19 28 7 6 107
25 208 41 79 13 99 20 125 44 17 16 60 56 96 89 36 33 128 118 206 189 77 71
189 174 249 229 60 55 141 130 180 166 38 36 95 87 125 115 30 27 80 72 110
101 30 28 69 64 85 78 27 25 204 187 245 225 55 51 253 233 299 275 30 28 82
76 115 107 34 32 64 58 68 58 3 0 39 -35 80 -79z"/>
<path d="M4500 3390 l0 -150 150 0 150 0 0 150 0 150 -150 0 -150 0 0 -150z"/>
<path d="M4920 3390 l0 -150 50 -1 c28 0 66 -1 85 -1 19 0 64 1 100 1 l65 1 0
150 0 150 -150 0 -150 0 0 -150z"/>
<path d="M4500 2970 l0 -150 150 0 150 0 0 150 0 150 -150 0 -150 0 0 -150z"/>
<path d="M4920 2970 l0 -150 150 0 150 0 0 150 0 150 -150 0 -150 0 0 -150z"/>
<path d="M2351 1911 c-8 -5 -46 -12 -85 -16 -39 -4 -75 -11 -81 -15 -5 -4 -36
-10 -68 -14 -32 -3 -77 -11 -100 -16 -52 -12 -290 -60 -299 -60 -9 0 -75 -58
-213 -184 -198 -182 -246 -231 -235 -234 7 -3 17 1 23 7 6 6 20 11 30 11 10 0
33 6 50 14 32 13 159 53 267 83 30 8 69 19 85 23 17 5 50 14 75 20 25 7 54 16
65 20 11 5 40 13 65 19 129 28 132 29 304 186 90 83 165 153 165 158 1 10 -31
9 -48 -2z"/>
<path d="M7326 1909 c3 -8 78 -79 165 -159 167 -151 171 -154 299 -181 25 -5
53 -14 62 -19 10 -6 24 -10 33 -10 8 0 34 -6 57 -14 24 -7 72 -21 108 -31 36
-10 141 -42 234 -72 92 -30 170 -52 172 -50 3 2 -46 51 -108 108 -61 57 -146
136 -187 175 -152 143 -124 130 -386 179 -49 10 -124 24 -165 32 -41 8 -111
20 -155 28 -44 8 -92 17 -108 21 -21 5 -26 3 -21 -7z"/>
<path d="M2712 1346 c-4 -6 -8 -90 -9 -186 -2 -96 -3 -178 -3 -183 0 -16 -52
-27 -86 -18 -29 8 -36 7 -44 -9 -23 -42 -13 -57 43 -65 28 -5 57 -7 62 -5 6 1
21 5 35 8 14 2 33 12 43 21 36 31 43 70 42 256 l0 180 -38 6 c-23 4 -40 2 -45
-5z"/>
<path d="M3255 1351 l-30 -6 -3 -175 c-1 -96 0 -185 3 -197 l5 -23 268 0 c213
-1 272 -4 292 -15 14 -8 45 -14 70 -14 25 0 56 6 70 14 19 11 67 14 197 15
l172 0 20 26 c19 25 21 40 21 196 l0 168 -27 11 c-53 20 -58 7 -61 -160 l-3
-151 -44 0 -44 0 -3 157 c-3 147 -4 156 -23 159 -53 8 -54 4 -57 -159 l-3
-152 -46 -3 -46 -3 -6 46 c-3 34 -11 51 -28 63 -52 37 -135 37 -176 -1 -13
-12 -25 -38 -29 -64 l-6 -44 -47 3 -46 3 -3 60 c-4 79 -19 95 -89 95 -99 0
-159 -49 -151 -125 3 -29 2 -30 -44 -33 l-48 -3 0 149 c0 163 -3 173 -55 163z"/>
<path d="M6162 1351 c-23 -6 -23 -9 -25 -156 l-2 -150 -46 -3 -47 -3 -6 44
c-10 66 -41 90 -116 90 -53 0 -64 -3 -90 -28 -23 -22 -30 -38 -30 -67 l0 -38
-65 0 c-36 0 -65 2 -65 5 0 3 9 24 20 45 19 37 19 43 6 69 -20 38 -31 41 -142
41 -81 0 -97 -3 -114 -20 -24 -24 -26 -76 -5 -104 8 -11 15 -23 15 -28 0 -4
-34 -8 -75 -8 l-74 0 -3 78 -3 77 -37 3 c-44 4 -50 -10 -46 -98 l3 -55 -61 -3
-61 -3 -6 42 c-3 26 -15 52 -31 67 -21 22 -34 25 -85 25 -76 0 -107 -23 -117
-90 l-6 -44 -47 3 -46 3 -3 54 c-6 85 -42 122 -120 122 -64 -1 -87 -6 -86 -19
1 -7 2 -23 3 -37 1 -23 5 -25 49 -25 58 0 72 -12 72 -62 l0 -37 -72 -3 -73 -3
0 -40 0 -40 170 -3 c125 -2 178 -6 202 -17 39 -19 110 -19 143 0 38 21 776 21
804 0 26 -20 116 -20 142 0 13 10 45 14 100 15 72 0 84 3 108 25 l26 24 0 170
c0 152 -2 171 -17 179 -10 5 -28 6 -41 3z"/>
<path d="M6327 1352 c-16 -3 -17 -19 -15 -200 l3 -197 38 -3 37 -3 -2 203 c-3
195 -4 203 -23 204 -11 0 -28 -2 -38 -4z"/>
<path d="M7622 1345 c-3 -5 -7 -75 -8 -155 l-2 -145 -48 0 -47 0 -27 63 c-15
35 -36 72 -47 83 -25 26 -91 29 -126 6 -23 -15 -25 -20 -16 -47 10 -28 29 -42
29 -20 0 6 11 10 25 10 17 0 32 -11 50 -37 41 -62 39 -63 -95 -63 l-119 0 -3
78 -3 77 -37 3 c-21 2 -38 0 -39 -5 0 -4 -1 -39 -2 -78 l-2 -70 -75 0 -75 0
-5 75 -5 75 -35 0 -35 0 -3 -77 -3 -78 -59 0 -60 0 0 64 c0 35 -3 71 -6 80 -8
22 -70 22 -78 0 -3 -9 -6 -69 -6 -135 0 -113 -1 -119 -23 -134 -19 -12 -29
-13 -55 -3 -37 14 -52 3 -52 -39 0 -17 9 -24 38 -32 97 -28 153 0 177 87 l6
22 453 0 c441 0 453 0 474 20 21 20 22 28 22 200 0 99 -3 180 -7 181 -45 5
-66 3 -71 -6z"/>
<path d="M7828 1352 c-32 -4 -34 -17 -30 -239 l3 -163 34 0 c19 0 35 1 36 3 0
1 3 88 6 193 5 206 4 213 -49 206z"/>
<path d="M2536 1311 c-3 -5 -2 -22 3 -37 5 -16 12 -67 16 -114 7 -85 10 -124
13 -147 2 -13 73 -19 84 -7 3 3 2 20 -2 37 -5 18 -11 80 -15 140 -5 74 -12
112 -22 122 -16 16 -69 20 -77 6z"/>
<path d="M1965 1191 c-6 -6 -8 -53 -5 -110 4 -85 8 -102 25 -115 16 -12 57
-15 213 -16 192 0 193 0 217 25 23 22 25 32 25 113 0 55 -4 92 -12 100 -16 16
-68 15 -69 0 0 -7 -1 -42 -2 -78 l-2 -65 -156 -3 -157 -2 -1 71 c0 39 -3 75
-7 80 -7 12 -57 12 -69 0z"/>
<path d="M2955 1183 c-52 -28 -64 -52 -65 -124 0 -84 16 -101 97 -106 31 -2
58 -5 60 -7 2 -2 -4 -11 -13 -21 -14 -13 -28 -16 -65 -12 -46 6 -48 5 -58 -24
-9 -27 -8 -31 13 -39 43 -16 111 -22 138 -11 54 20 68 62 68 202 l0 125 -47
17 c-59 21 -89 21 -128 0z"/>
<path d="M2663 473 c-9 -23 4 -38 33 -38 l29 0 5 -105 c5 -99 6 -105 27 -108
22 -3 22 0 25 105 l3 108 30 0 c23 1 31 6 33 22 3 21 -1 22 -89 25 -65 2 -93
0 -96 -9z"/>
<path d="M2909 483 c-15 -4 -17 -21 -15 -131 l1 -127 25 0 25 0 3 126 c3 131
0 140 -39 132z"/>
<path d="M6868 482 c-18 -2 -30 -12 -38 -33 -13 -30 -50 -42 -50 -16 0 23 -37
49 -63 45 l-24 -3 38 -63 39 -64 -25 -32 c-14 -18 -25 -38 -25 -43 0 -6 -7
-16 -15 -23 -23 -19 -18 -30 15 -30 24 0 35 7 51 35 26 43 34 44 54 5 15 -29
54 -48 74 -36 6 4 -4 28 -24 61 -19 30 -35 61 -35 70 0 9 13 35 28 58 50 73
50 76 0 69z"/>
<path d="M7209 479 c-5 -3 -8 -61 -6 -130 l2 -124 83 -3 83 -3 -3 28 c-3 25
-7 28 -48 31 -61 3 -69 7 -63 31 5 18 13 21 59 21 51 0 54 1 54 25 0 24 -3 25
-54 25 -53 0 -68 10 -59 38 3 7 24 12 59 12 50 0 54 2 54 24 0 23 -3 25 -76
28 -42 2 -80 1 -85 -3z"/>
<path d="M7668 479 c-5 -4 -8 -15 -6 -25 2 -14 12 -19 33 -19 l30 0 5 -105 c5
-100 6 -105 28 -108 22 -3 22 -1 22 97 0 106 4 116 50 116 18 0 25 5 25 20 0
18 -8 20 -89 25 -48 3 -93 2 -98 -1z"/>
<path d="M1992 464 c-20 -14 -22 -23 -22 -109 0 -90 1 -94 28 -115 21 -17 36
-21 71 -17 51 6 71 23 74 63 2 23 -2 30 -20 32 -14 2 -23 -3 -28 -17 -8 -26
-60 -29 -69 -5 -10 27 -6 110 6 122 18 18 46 14 58 -8 14 -26 60 -27 60 -1 0
10 -9 30 -21 45 -17 21 -29 26 -68 26 -26 0 -56 -7 -69 -16z"/>
<path d="M2204 467 c-2 -7 -3 -65 -2 -128 l3 -114 79 -3 c83 -3 98 4 89 39 -4
16 -15 19 -59 19 -51 0 -54 1 -54 25 0 24 3 25 55 25 52 0 55 1 55 25 0 24 -3
25 -55 25 -52 0 -55 1 -55 25 0 24 3 25 55 25 52 0 55 1 55 25 0 25 -1 25 -80
25 -57 0 -82 -4 -86 -13z"/>
<path d="M2426 353 c1 -128 2 -128 25 -128 22 0 24 5 25 44 0 25 5 46 10 48 5
2 20 -14 34 -34 36 -53 48 -63 76 -63 32 0 30 20 -6 55 -36 35 -38 48 -6 63
36 16 45 75 19 110 -18 25 -27 27 -99 30 l-79 3 1 -128z"/>
<path d="M3000 350 c0 -136 2 -140 44 -124 12 4 16 20 16 56 l0 50 38 -4 c34
-3 37 -1 37 22 0 22 -4 25 -35 25 -31 0 -35 3 -38 27 -3 25 0 27 40 30 36 2
44 7 46 26 3 21 0 22 -72 22 l-76 0 0 -130z"/>
<path d="M3192 353 l3 -128 25 0 25 0 3 128 3 127 -31 0 -31 0 3 -127z"/>
<path d="M3302 353 l3 -128 80 0 c78 1 80 1 80 25 0 20 -6 26 -28 28 -18 2
-29 -2 -33 -12 -8 -20 -24 -21 -24 -2 0 8 -6 16 -14 19 -9 4 -12 14 -9 26 5
18 13 21 59 21 51 0 54 2 54 25 0 22 -4 24 -57 27 -50 3 -58 6 -58 23 0 17 8
21 55 25 48 4 55 8 58 28 3 21 1 22 -83 22 l-86 0 3 -127z"/>
<path d="M3522 353 l3 -128 63 -3 c62 -3 65 -2 98 33 31 33 34 42 34 97 0 50
-5 67 -26 95 -24 32 -27 33 -100 33 l-75 0 3 -127z"/>
<path d="M3862 457 c-19 -20 -22 -35 -22 -104 0 -106 15 -128 90 -128 42 0 55
4 71 24 41 50 8 95 -36 47 -19 -21 -29 -24 -47 -17 -20 7 -23 16 -26 74 -3 58
-1 66 18 72 27 8 60 -3 60 -21 0 -8 10 -14 25 -14 32 0 34 36 5 68 -30 32
-108 31 -138 -1z"/>
<path d="M4095 467 c-15 -11 -19 -31 -21 -104 -5 -118 8 -138 89 -138 81 0 87
8 87 131 0 92 -2 104 -19 114 -28 14 -114 12 -136 -3z"/>
<path d="M4308 359 c-2 -67 0 -126 3 -131 4 -5 15 -8 25 -6 16 3 19 14 22 81
2 42 7 77 11 77 5 0 30 -34 57 -75 49 -75 75 -94 110 -81 15 6 16 21 11 124
-4 64 -7 120 -7 125 0 4 -11 7 -25 7 -25 0 -25 -1 -25 -80 0 -44 -3 -80 -7
-80 -5 0 -30 36 -58 80 -45 72 -53 80 -82 80 l-32 0 -3 -121z"/>
<path d="M4592 458 c2 -17 10 -22 33 -23 l30 0 3 -107 c2 -84 6 -108 17 -108
36 0 40 9 38 93 -3 117 0 128 37 120 27 -5 30 -3 30 21 l0 26 -96 0 c-93 0
-95 -1 -92 -22z"/>
<path d="M4830 349 c0 -130 0 -130 23 -127 19 3 22 9 23 47 0 25 6 47 12 49 7
2 12 0 12 -5 0 -5 16 -28 36 -51 24 -28 44 -42 60 -42 31 0 30 9 -6 55 -31 39
-37 55 -20 55 20 0 50 41 50 69 0 15 -9 40 -21 55 -19 24 -26 26 -95 26 l-74
0 0 -131z"/>
<path d="M5094 459 c-27 -30 -35 -225 -10 -235 22 -8 47 14 45 40 -2 37 0 42
24 41 34 -2 48 -14 46 -38 -3 -42 1 -48 24 -45 21 3 22 8 25 110 3 104 2 106
-24 127 -36 29 -104 29 -130 0z"/>
<path d="M5325 455 c-21 -20 -25 -34 -25 -83 0 -89 8 -117 40 -135 44 -26 87
-22 122 13 16 16 28 38 26 47 -5 27 -44 28 -58 3 -8 -15 -19 -20 -38 -18 -26
3 -27 4 -27 73 0 69 1 70 27 73 19 2 30 -3 38 -18 7 -14 19 -20 33 -18 30 4
32 29 7 61 -18 23 -29 27 -71 27 -40 0 -55 -5 -74 -25z"/>
<path d="M5532 458 c2 -18 10 -23 33 -23 l30 0 5 -105 c5 -103 5 -105 30 -105
24 0 24 1 26 100 1 55 2 104 3 108 0 5 13 7 29 5 22 -2 28 1 30 20 3 21 1 22
-93 22 -94 0 -96 -1 -93 -22z"/>
<path d="M5880 350 c0 -123 1 -130 20 -130 22 0 22 -1 20 93 -1 38 3 67 8 67
6 0 36 -36 67 -81 49 -70 60 -80 83 -77 l27 3 3 128 3 127 -30 0 -30 0 -3 -82
-3 -83 -55 82 c-47 70 -59 83 -82 83 l-28 0 0 -130z"/>
<path d="M6177 462 c-22 -24 -24 -188 -4 -216 20 -28 102 -33 144 -11 33 18
34 20 31 74 l-3 56 -35 0 c-31 0 -35 -3 -38 -27 -2 -21 1 -28 13 -28 9 0 15
-6 13 -12 -3 -8 -21 -13 -44 -13 l-39 0 2 65 c1 36 2 68 2 73 2 13 54 8 70 -7
9 -8 25 -16 36 -18 27 -4 33 37 9 63 -24 27 -133 27 -157 1z"/>
<path d="M6472 353 l3 -128 83 -1 c45 -1 84 1 87 5 6 11 -6 51 -16 51 -4 0
-17 -10 -29 -22 l-20 -22 0 22 c0 17 -6 22 -26 22 -21 0 -25 4 -22 23 3 19 10
22 53 25 50 3 67 14 58 39 -3 9 -23 13 -59 13 -51 0 -54 1 -54 25 0 24 3 25
54 25 49 0 54 2 58 25 l5 25 -89 0 -89 0 3 -127z"/>
<path d="M6962 353 c3 -124 4 -128 26 -131 20 -3 27 7 23 32 -1 6 0 20 4 33 5
20 12 23 49 23 37 0 48 5 71 32 31 37 29 77 -7 115 -19 20 -31 23 -95 23 l-74
0 3 -127z"/>
<path d="M7429 438 c-2 -35 -1 -145 1 -206 0 -8 9 -12 23 -10 19 3 22 10 25
51 2 26 7 47 12 47 4 0 18 -16 30 -35 31 -51 48 -65 76 -65 32 0 30 15 -7 57
l-31 36 31 28 c37 33 41 74 10 113 -19 24 -26 26 -95 26 l-74 0 -1 -42z"/>
</g>
</svg>
